<?xml version="1.0" encoding="utf-8"?>
<!-- Generator: Adobe Illustrator 25.2.0, SVG Export Plug-In . SVG Version: 6.00 Build 0)  -->
<svg version="1.1" id="Layer_1" xmlns="http://www.w3.org/2000/svg" xmlns:xlink="http://www.w3.org/1999/xlink" x="0px" y="0px"
	 viewBox="0 0 288 72" style="enable-background:new 0 0 288 72;" xml:space="preserve">
<style type="text/css">
	.st0{fill:#00B43D;}
	.st1{fill:#FFFFFF;}
</style>
<g>
	<path class="st0" d="M90.46,55.49c-10.89,0-19.76-8.74-19.76-19.49c0-10.68,8.87-19.49,19.69-19.49c11.22,0,19.89,8.67,19.89,19.76
		C110.29,46.75,101.28,55.49,90.46,55.49z M90.46,24.71c-5.85,0-10.75,5.04-10.75,11.15c0,6.38,4.77,11.42,10.82,11.42
		c5.91,0,10.75-5.04,10.75-11.29C101.28,29.82,96.44,24.71,90.46,24.71z"/>
	<path class="st0" d="M124.26,33.92v19.81c0,0.49-0.4,0.88-0.88,0.88h-7.17c-0.49,0-0.88-0.4-0.88-0.88V18.27
		c0-0.49,0.4-0.88,0.88-0.88h6.43c0.49,0,0.88,0.4,0.88,0.88l-0.04,1.46c0,0-0.05,1.26,0.04,1.28c0.19,0.05,0.56-0.79,0.83-1.14
		c2-2.53,3.86-3.36,7.23-3.36h0.67v7.77c0,0.47-0.37,0.84-0.84,0.88C126.61,25.57,124.26,28.45,124.26,33.92z"/>
	<path class="st0" d="M158.19,54.25L147.36,39.4c-0.5-0.69-1.6-0.33-1.6,0.52v13.81c0,0.49-0.4,0.88-0.88,0.88h-7.17
		c-0.49,0-0.88-0.4-0.88-0.88V5.84c0-0.49,0.4-0.88,0.88-0.88h7.17c0.49,0,0.88,0.4,0.88,0.88v26.2c0,0.87,1.13,1.22,1.62,0.5
		l10.01-14.76c0.16-0.24,0.44-0.39,0.73-0.39h8.47c0.72,0,1.14,0.82,0.71,1.41l-11.87,16.25c-0.24,0.32-0.23,0.77,0.03,1.08
		l13.85,17.04c0.47,0.58,0.06,1.44-0.69,1.44h-9.72C158.63,54.61,158.36,54.48,158.19,54.25z"/>
	<path class="st0" d="M202.27,53.73v-1.77c0-0.78-0.93-1.16-1.5-0.63c-3.09,2.91-6.36,4.16-10.87,4.16
		c-10.89,0-18.75-8.13-18.75-19.35c0-11.36,7.93-19.62,18.95-19.62c4.52,0,7.85,1.23,10.63,4.06c0.56,0.57,1.53,0.21,1.53-0.6v-1.7
		c0-0.49,0.4-0.88,0.88-0.88h6.43c0.49,0,0.88,0.4,0.88,0.88v35.46c0,0.49-0.4,0.88-0.88,0.88h-6.43
		C202.66,54.61,202.27,54.22,202.27,53.73z M191.04,24.71c-6.38,0-10.89,4.84-10.89,11.62c0,6.52,4.5,10.95,11.02,10.95
		c6.79,0,10.82-4.84,10.82-11.02C202,29.48,197.43,24.71,191.04,24.71z"/>
	<path class="st0" d="M231.02,13.56c-3.12,0-4.36,0.91-4.64,3.5c-0.06,0.53,0.35,1,0.88,1h3.21c0.49,0,0.88,0.4,0.88,0.88v5.69
		c0,0.49-0.4,0.88-0.88,0.88h-3.27c-0.49,0-0.88,0.4-0.88,0.88v27.33c0,0.49-0.4,0.88-0.88,0.88h-7.17c-0.49,0-0.88-0.4-0.88-0.88
		V26.4c0-0.49-0.4-0.88-0.88-0.88h-1.46c-0.49,0-0.88-0.4-0.88-0.88v-5.69c0-0.49,0.4-0.88,0.88-0.88h1.56
		c0.44,0,0.81-0.35,0.87-0.79c1.18-9.2,5.93-12.32,12.21-12.32c0.61,0,1.14,0,2.22,0.13v8.47H231.02z"/>
	<path class="st0" d="M248.38,67.04h-7.67c-0.64,0-1.07-0.66-0.81-1.24l6.29-14.34c0.1-0.22,0.1-0.47,0.01-0.69L233.19,18.6
		c-0.24-0.58,0.19-1.22,0.82-1.22h8.27c0.38,0,0.71,0.24,0.84,0.6l7.26,21.19c0.27,0.79,1.38,0.8,1.67,0.02l7.92-21.23
		c0.13-0.35,0.46-0.58,0.83-0.58h8.32c0.64,0,1.07,0.65,0.81,1.24l-20.74,47.89C249.05,66.84,248.73,67.04,248.38,67.04z"/>
	<g>
		<g>
			<path class="st0" d="M60.79,17.39h7.66c0.61,0,1.04,0.61,0.83,1.19l-12.8,35.46c-0.13,0.35-0.46,0.58-0.83,0.58h-7.67
				c-0.61,0-1.04-0.61-0.83-1.19l12.81-35.46C60.08,17.62,60.41,17.39,60.79,17.39z M39.19,54.61h-7.63c-0.37,0-0.71-0.24-0.83-0.59
				L18.05,18.57c-0.21-0.58,0.22-1.18,0.83-1.18h7.73c0.37,0,0.71,0.24,0.83,0.59l12.57,35.46C40.23,54.01,39.8,54.61,39.19,54.61z"
				/>
		</g>
		<g>
			<path class="st0" d="M43.43,28.51c-3.88,0-7.13,3.34-7.13,7.4c0,4.23,3.17,7.58,7.18,7.58c3.92,0,7.13-3.34,7.13-7.49
				C50.61,31.9,47.4,28.51,43.43,28.51z"/>
		</g>
	</g>
</g>
</svg>
